<svg xmlns="http://www.w3.org/2000/svg" xmlns:xlink="http://www.w3.org/1999/xlink" version="1.1" x="0px" y="0px" viewBox="0 0 100 125" enable-background="new 0 0 100 100" xml:space="preserve"><path d="M58.823,77.446l0.022-0.057l-0.295-0.231c-0.154-0.121-3.844-2.978-8.552-2.978c-4.964,0-8.248,2.713-8.608,3.024  c-0.294,0.258-0.463,0.625-0.463,1.007c0,0.745,0.605,1.351,1.351,1.351c0.156,0,0.309-0.028,0.453-0.083l0.066,0.071l0.364-0.308  c0.114-0.097,2.843-2.361,6.838-2.361c3.638,0,6.77,2.313,6.907,2.417l0.405,0.271l0.048-0.062c0.839,0.255,1.712-0.429,1.712-1.296  C59.072,77.935,58.984,77.67,58.823,77.446z"/><path d="M76.576,5c0,0-6.501,15.646-10.336,15.734c-2.164,0.051-4.646-0.316-5.446-0.501c-2.562-0.591-6.662-0.822-10.76-0.823  c-0.006,0-0.017,0-0.034,0s-0.028,0-0.034,0c-4.098,0.001-8.198,0.232-10.76,0.823c-0.801,0.185-3.282,0.552-5.446,0.501  C29.925,20.646,23.423,5,23.423,5s-1.284,24.312-1.06,35.847c0.152,7.851-0.099,10.825,0.539,17.104  C24.346,72.15,30.289,88.898,50,95l0,0c19.711-6.102,25.654-22.85,27.098-37.049c0.639-6.279,0.387-9.253,0.539-17.104  C77.861,29.312,76.576,5,76.576,5z M56.987,53.256l11.091-3.474c0.297-0.094,0.624-0.008,0.836,0.225  c0.211,0.232,0.27,0.564,0.15,0.853c-0.093,0.223-2.312,5.492-6.023,6.799c-0.787,0.277-1.525,0.416-2.208,0.416  c-0.793,0-1.514-0.188-2.153-0.561c-1.822-1.064-2.229-3.256-2.246-3.348C56.363,53.766,56.602,53.375,56.987,53.256z M50,19.414  c-0.069-0.001-0.035-0.002,0-0.003C50.035,19.412,50.069,19.413,50,19.414z M31.085,50.006c0.212-0.232,0.54-0.318,0.836-0.225  l11.091,3.474c0.386,0.119,0.624,0.51,0.554,0.91c-0.018,0.092-0.424,2.283-2.246,3.348c-0.64,0.373-1.36,0.561-2.153,0.561  c-0.683,0-1.421-0.139-2.208-0.416c-3.712-1.307-5.931-6.576-6.023-6.799C30.816,50.57,30.875,50.239,31.085,50.006z M69.748,72.451  c-2.613,9.736-7.236,13.053-13.484,17.625c-0.749,0.549-2.15,1.443-3.307,2.029c-1.019,0.518-2.146,0.941-2.957,0.941  s-1.938-0.424-2.957-0.941c-1.155-0.586-2.558-1.48-3.307-2.029c-6.248-4.572-10.871-7.889-13.484-17.625  c-0.737-2.748-1.228-4.783-2.369-6.805c0,0,7.578,0.268,10.958,1.002C42.856,67.521,50,71.51,50,71.51s7.144-3.988,11.158-4.861  c3.38-0.734,10.958-1.002,10.958-1.002C70.976,67.668,70.485,69.703,69.748,72.451z"/><text x="0" y="115" fill="#000000" font-size="5px" font-weight="bold" font-family="'Helvetica Neue', Helvetica, Arial-Unicode, Arial, Sans-serif">Created by TMD</text><text x="0" y="120" fill="#000000" font-size="5px" font-weight="bold" font-family="'Helvetica Neue', Helvetica, Arial-Unicode, Arial, Sans-serif">from the Noun Project</text></svg>