<svg xmlns="http://www.w3.org/2000/svg" xmlns:xlink="http://www.w3.org/1999/xlink" version="1.1" x="0px" y="0px" viewBox="0 0 100 100" enable-background="new 0 0 100 100" xml:space="preserve"><g><path d="M59.131,46.77c0,0,11.745-0.255,16.59-5.912c4.846-5.656,3.922,11.531-5.607,11.531   C62.815,52.389,59.976,50.075,59.131,46.77z"></path><path d="M50,0C28.756,0,11.538,19.269,11.538,40.513C11.538,79.004,25.643,94.554,50,100c20.602-4,38.462-18.697,38.462-59.487   C88.462,19.269,71.244,0,50,0z M46.47,48.885c-0.144,5.6-1.634,12.383-1.634,12.383s-3.399-2.899-4.774-4.432   c-1.664-1.855-4.995-0.218-6.73,2.46c-1.758,2.724-2.242,3.527-3.847,7.373c-0.938,2.262,0.323,7.212,1.442,11.058   c0.909,3.114,12.343,12.02,12.343,12.02s-13.991-1.772-21.154-16.827c-4.973-10.456-5.288-17.24-5.288-28.846   c0-11.614,2.881-31.724,24.264-39.671c-4.433,3.278-10.036,9.149-11.238,18.359c-2.096,16.045,6.408,18.96,8.812,18.96   c2.404,0,5.071-4.139,4.537-11.216c0,0,2.976,2.622,3.306,13.924c0.012,2.468-3.621,2.231-3.621,2.231S46.519,46.897,46.47,48.885z    M56.73,89.746c0,0,11.434-8.905,12.343-12.02c1.119-3.846,2.381-8.796,1.442-11.058c-1.604-3.846-2.089-4.649-3.847-7.373   c-1.735-2.678-5.066-4.315-6.73-2.46c-1.375,1.532-4.774,4.432-4.774,4.432s-1.49-6.783-1.634-12.383   c-0.049-1.987,3.584-2.224,3.584-2.224s-3.633,0.236-3.621-2.231c0.33-11.302,3.306-13.924,3.306-13.924   c-0.534,7.077,2.133,11.216,4.537,11.216c2.403,0,10.907-2.915,8.812-18.96c-1.202-9.21-6.806-15.081-11.238-18.359   c21.383,7.947,24.264,28.057,24.264,39.671c0,11.605-0.315,18.39-5.288,28.846C70.722,87.974,56.73,89.746,56.73,89.746z"></path><path d="M40.869,46.77c0,0-11.745-0.255-16.59-5.912c-4.846-5.656-3.922,11.531,5.607,11.531   C37.185,52.389,40.024,50.075,40.869,46.77z"></path></g></svg>