<svg xmlns="http://www.w3.org/2000/svg" xmlns:xlink="http://www.w3.org/1999/xlink" version="1.1" x="0px" y="0px" viewBox="0 0 100 125" enable-background="new 0 0 100 100" xml:space="preserve"><g><path d="M50,94C25.7,94,6,74.3,6,50S25.7,6,50,6s44,19.8,44,44S74.3,94,50,94z M50,8.9C27.3,8.9,8.9,27.3,8.9,50S27.3,91.1,50,91.1   S91.1,72.7,91.1,50S72.7,8.9,50,8.9z"/></g><path d="M74.8,21.8L53.2,52L71,74.2C71,74.2,105.8,55.8,74.8,21.8z M70.5,60.1c-4.9,0-8.9-4-8.9-8.9c0-4.9,4-8.9,8.9-8.9  s8.9,4,8.9,8.9C79.4,56.1,75.4,60.1,70.5,60.1z"/><path d="M25.4,21.8c-31,33.9,3.8,52.3,3.8,52.3L47,52L25.4,21.8z M29.7,60.1c-4.9,0-8.9-4-8.9-8.9c0-4.9,4-8.9,8.9-8.9  c4.9,0,8.9,4,8.9,8.9C38.6,56.1,34.6,60.1,29.7,60.1z"/><text x="0" y="115" fill="#000000" font-size="5px" font-weight="bold" font-family="'Helvetica Neue', Helvetica, Arial-Unicode, Arial, Sans-serif">Created by Daniel Pineda</text><text x="0" y="120" fill="#000000" font-size="5px" font-weight="bold" font-family="'Helvetica Neue', Helvetica, Arial-Unicode, Arial, Sans-serif">from the Noun Project</text></svg>